<svg width="20" height="16" viewBox="0 0 20 16" fill="none" xmlns="http://www.w3.org/2000/svg">
<g id="3682892 1 (traced)" opacity="0.8">
<g id="Black">
<path id="Vector" d="M1.09286 12.1953C1.42401 12.8304 2.16772 13.0693 2.74315 12.7218C2.90058 12.6296 4.17086 11.3538 6.18486 9.24756C7.94372 7.42356 9.39858 5.92527 9.41486 5.92527C9.43115 5.92527 10.886 7.42356 12.6449 9.25299C14.6589 11.3538 15.9291 12.6296 16.0866 12.7218C16.5263 12.9878 17.1614 12.901 17.5034 12.5318C17.8454 12.1736 17.9377 11.5656 17.7043 11.153C17.6391 11.0281 15.902 9.18241 13.85 7.04899C10.9729 4.05784 10.0609 3.14584 9.89801 3.0807C9.62658 2.97213 9.20315 2.97213 8.93172 3.0807C8.76886 3.14584 7.86772 4.04699 4.97972 7.04899C2.92772 9.18241 1.19058 11.0281 1.12001 11.153C0.973434 11.419 0.95715 11.9456 1.09286 12.1953Z" fill="#0D0D0D"/>
</g>
</g>
</svg>
