<svg width="18" height="11" viewBox="0 0 18 11" fill="none" xmlns="http://www.w3.org/2000/svg">
<path d="M17.3251 1.34819C16.994 0.713043 16.2502 0.474186 15.6748 0.821615C15.5174 0.9139 14.2471 2.18961 12.2331 4.2959C10.4742 6.1199 9.01939 7.61819 9.00311 7.61819C8.98682 7.61819 7.53196 6.1199 5.77311 4.29047C3.75911 2.18961 2.48882 0.9139 2.33139 0.821615C1.89168 0.555615 1.25653 0.642472 0.914534 1.01161C0.572534 1.3699 0.480248 1.9779 0.713677 2.39047C0.77882 2.51533 2.51596 4.36104 4.56796 6.49447C7.44511 9.48561 8.35711 10.3976 8.51996 10.4628C8.79139 10.5713 9.21482 10.5713 9.48625 10.4628C9.64911 10.3976 10.5502 9.49647 13.4382 6.49447C15.4902 4.36104 17.2274 2.51533 17.298 2.39047C17.4445 2.12447 17.4608 1.5979 17.3251 1.34819Z" fill="#0D0D0D"/>
</svg>
