<svg width="25" height="25" viewBox="0 0 25 25" fill="none" xmlns="http://www.w3.org/2000/svg">
<mask id="mask0_72_85" style="mask-type:alpha" maskUnits="userSpaceOnUse" x="0" y="0" width="25" height="25">
<rect x="0.230469" y="0.00292969" width="24" height="24" fill="#D9D9D9"/>
</mask>
<g mask="url(#mask0_72_85)">
<path d="M2.23047 22.0029V4.00293C2.23047 3.45293 2.4263 2.9821 2.81797 2.59043C3.20964 2.19876 3.68047 2.00293 4.23047 2.00293H20.2305C20.7805 2.00293 21.2513 2.19876 21.643 2.59043C22.0346 2.9821 22.2305 3.45293 22.2305 4.00293V16.0029C22.2305 16.5529 22.0346 17.0238 21.643 17.4154C21.2513 17.8071 20.7805 18.0029 20.2305 18.0029H6.23047L2.23047 22.0029ZM5.38047 16.0029H20.2305V4.00293H4.23047V17.1279L5.38047 16.0029Z" fill="#1C1B1F"/>
</g>
</svg>
