<svg width="25" height="25" viewBox="0 0 25 25" fill="none" xmlns="http://www.w3.org/2000/svg">
<g id="bookmarks">
<mask id="mask0_72_140" style="mask-type:alpha" maskUnits="userSpaceOnUse" x="0" y="0" width="25" height="25">
<rect id="Bounding box" x="0.5" y="0.783447" width="24" height="24" fill="#D9D9D9"/>
</mask>
<g mask="url(#mask0_72_140)">
<path id="bookmarks_2" d="M3.5 23.7834V7.78345C3.5 7.23345 3.69583 6.76261 4.0875 6.37095C4.47917 5.97928 4.95 5.78345 5.5 5.78345H15.5C16.05 5.78345 16.5208 5.97928 16.9125 6.37095C17.3042 6.76261 17.5 7.23345 17.5 7.78345V23.7834L10.5 20.7834L3.5 23.7834ZM5.5 20.7334L10.5 18.5834L15.5 20.7334V7.78345H5.5V20.7334ZM19.5 20.7834V3.78345H6.5V1.78345H19.5C20.05 1.78345 20.5208 1.97928 20.9125 2.37095C21.3042 2.76261 21.5 3.23345 21.5 3.78345V20.7834H19.5Z" fill="#FF5C00"/>
</g>
</g>
</svg>
