<svg width="39" height="25" viewBox="0 0 39 25" fill="none" xmlns="http://www.w3.org/2000/svg">
<mask id="mask0_607_4" style="mask-type:alpha" maskUnits="userSpaceOnUse" x="0" y="0" width="25" height="25">
<rect x="0.230469" y="0.00292969" width="24" height="24" fill="#D9D9D9"/>
</mask>
<g mask="url(#mask0_607_4)">
<path d="M12.2302 21.0029L10.7802 19.7029C9.09689 18.1862 7.70522 16.8779 6.60522 15.7779C5.50522 14.6779 4.63022 13.6904 3.98022 12.8154C3.33022 11.9404 2.87606 11.1362 2.61772 10.4029C2.35939 9.66956 2.23022 8.91956 2.23022 8.15289C2.23022 6.58623 2.75522 5.27789 3.80522 4.22789C4.85522 3.17789 6.16356 2.65289 7.73022 2.65289C8.59689 2.65289 9.42189 2.83623 10.2052 3.20289C10.9886 3.56956 11.6636 4.08623 12.2302 4.75289C12.7969 4.08623 13.4719 3.56956 14.2552 3.20289C15.0386 2.83623 15.8636 2.65289 16.7302 2.65289C18.2969 2.65289 19.6052 3.17789 20.6552 4.22789C21.7052 5.27789 22.2302 6.58623 22.2302 8.15289C22.2302 8.91956 22.1011 9.66956 21.8427 10.4029C21.5844 11.1362 21.1302 11.9404 20.4802 12.8154C19.8302 13.6904 18.9552 14.6779 17.8552 15.7779C16.7552 16.8779 15.3636 18.1862 13.6802 19.7029L12.2302 21.0029ZM12.2302 18.3029C13.8302 16.8696 15.1469 15.6404 16.1802 14.6154C17.2136 13.5904 18.0302 12.6987 18.6302 11.9404C19.2302 11.1821 19.6469 10.5071 19.8802 9.91539C20.1136 9.32373 20.2302 8.73623 20.2302 8.15289C20.2302 7.15289 19.8969 6.31956 19.2302 5.65289C18.5636 4.98623 17.7302 4.65289 16.7302 4.65289C15.9469 4.65289 15.2219 4.87373 14.5552 5.31539C13.8886 5.75706 13.4302 6.31956 13.1802 7.00289H11.2802C11.0302 6.31956 10.5719 5.75706 9.90522 5.31539C9.23856 4.87373 8.51356 4.65289 7.73022 4.65289C6.73022 4.65289 5.89689 4.98623 5.23022 5.65289C4.56356 6.31956 4.23022 7.15289 4.23022 8.15289C4.23022 8.73623 4.34689 9.32373 4.58022 9.91539C4.81356 10.5071 5.23022 11.1821 5.83022 11.9404C6.43022 12.6987 7.24689 13.5904 8.28022 14.6154C9.31356 15.6404 10.6302 16.8696 12.2302 18.3029Z" fill="#1C1B1F"/>
</g>
<path d="M36.8457 16.6279V18.5029H27.3145V16.8916L31.9434 11.8428C32.4512 11.2699 32.8516 10.7751 33.1445 10.3584C33.4375 9.94173 33.6426 9.56738 33.7598 9.23535C33.8835 8.89681 33.9453 8.56803 33.9453 8.24902C33.9453 7.7998 33.8607 7.40592 33.6914 7.06738C33.5286 6.72233 33.2878 6.45215 32.9688 6.25684C32.6497 6.05501 32.2624 5.9541 31.8066 5.9541C31.2793 5.9541 30.8366 6.06803 30.4785 6.2959C30.1204 6.52376 29.8503 6.83952 29.668 7.24316C29.4857 7.6403 29.3945 8.09603 29.3945 8.61035H27.041C27.041 7.78353 27.2298 7.02832 27.6074 6.34473C27.985 5.65462 28.5319 5.10775 29.248 4.7041C29.9642 4.29395 30.8268 4.08887 31.8359 4.08887C32.7865 4.08887 33.5938 4.24837 34.2578 4.56738C34.9219 4.88639 35.4264 5.33887 35.7715 5.9248C36.123 6.51074 36.2988 7.2041 36.2988 8.00488C36.2988 8.44759 36.2272 8.88704 36.084 9.32324C35.9408 9.75944 35.7357 10.1956 35.4688 10.6318C35.2083 11.0615 34.8991 11.4945 34.541 11.9307C34.1829 12.3604 33.7891 12.7965 33.3594 13.2393L30.2832 16.6279H36.8457Z" fill="black"/>
</svg>
