<svg width="130" height="109" viewBox="0 0 130 109" fill="none" xmlns="http://www.w3.org/2000/svg">
<path id="grow-logo 1 (Traced)" fill-rule="evenodd" clip-rule="evenodd" d="M71.3229 0.704933C65.9685 1.08781 60.3412 2.37729 55.219 4.39492C53.0889 5.23405 48.7022 7.4584 46.713 8.70808C43.1749 10.9308 40.1267 13.3657 37.1012 16.3856C30.8175 22.6581 26.4807 29.7731 23.7241 38.3326L23.3989 39.342H23.9489H24.4989L25.1588 37.4154C29.8081 23.8411 39.9227 12.6081 52.9298 6.57405C64.0461 1.41716 76.6107 0.277757 88.5087 3.34758C102.269 6.89798 114.199 16.0645 121.242 28.4983C124.042 33.4398 126.163 39.2199 127.163 44.6325C129.005 54.5947 128.073 64.5878 124.433 73.8995C123.635 75.9436 121.921 79.4587 120.81 81.3327C113.343 93.9256 101.244 102.792 87.0634 106.062C83.4923 106.886 80.4318 107.264 76.5063 107.366C59.3215 107.812 43.1496 99.9451 32.79 86.0993C29.3741 81.5339 26.6995 76.4091 24.9595 71.0946L24.4967 69.6815H23.9933C23.5921 69.6815 23.49 69.7222 23.49 69.8821C23.49 69.9924 23.7816 70.9398 24.138 71.9874C26.2567 78.2135 29.5905 84.1007 33.9701 89.3502C35.482 91.1624 39.452 95.0224 41.4313 96.6048C49.4944 103.051 58.7101 106.879 69.2951 108.178C71.6992 108.474 78.7762 108.471 81.1791 108.174C90.0024 107.083 97.5972 104.351 104.691 99.716C117.366 91.4347 125.905 78.3922 128.415 63.4817C128.96 60.2436 129.1 58.4658 129.108 54.6848C129.118 50.1595 128.826 47.2358 127.962 43.2058C126.07 34.3816 121.928 26.0761 115.996 19.2119C114.683 17.6929 111.775 14.7988 110.254 13.4985C101.481 5.99541 90.6042 1.55143 78.9292 0.700085C77.1053 0.567076 73.2155 0.569616 71.3229 0.704933ZM55.219 42.3106C52.4872 42.4263 50.1998 43.374 48.4201 45.1275C45.953 47.5586 44.8284 50.8612 44.9892 55.2039C45.0636 57.2127 45.2752 58.3791 45.8499 59.9489C46.7771 62.4811 48.6383 64.5915 50.9296 65.7086C53.7521 67.0846 57.7121 67.123 60.6233 65.8026C62.8578 64.7892 64.7324 62.7688 65.711 60.3189C67.1916 56.6123 67.0721 51.5316 65.4242 48.1151C63.4876 44.1001 59.9863 42.1087 55.219 42.3106ZM10.8658 42.4615C8.38762 42.8502 6.34496 43.8423 4.58175 45.5137C2.14923 47.8194 1.05902 50.323 0.907413 53.9509C0.659004 59.8952 3.34478 64.193 8.45477 66.0282C9.92573 66.5564 11.1258 66.7295 13.279 66.7246C16.137 66.718 18.0867 66.253 20.0924 65.0996C20.7711 64.7094 20.8341 64.6395 20.8952 64.2083C20.9317 63.951 20.9463 61.3266 20.9277 58.3763L20.8939 53.0121L16.7115 52.9819L12.529 52.9515V54.5104V56.0691H14.952H17.3749V59.3597V62.6503L17.0576 62.7713C15.3411 63.4264 12.6109 63.5793 10.7565 63.1243C7.61713 62.3541 5.50397 60.1231 4.85128 56.8899C4.70048 56.1426 4.66805 55.5259 4.70867 54.1789C4.75666 52.5899 4.79485 52.3359 5.13983 51.3132C5.9776 48.8294 7.76411 46.9903 10.1098 46.1969C12.6355 45.3426 16.055 45.6562 18.7594 46.9902C19.2988 47.2562 19.779 47.4915 19.8267 47.5129C19.8743 47.5343 19.9132 46.7246 19.9132 45.7134V43.8752L19.1344 43.5239C17.3314 42.7106 16.0042 42.4439 13.5097 42.3939C12.4309 42.3722 11.2412 42.4026 10.8658 42.4615ZM25.8841 42.7509C25.8364 42.8006 25.7975 48.1535 25.7975 54.6464V66.4514H27.6436H29.4896V61.9492V57.4469L31.0649 57.479L32.6401 57.5111L35.4022 61.9813L38.1642 66.4514H40.2976H42.4308L42.164 66.0188C42.0173 65.781 40.6367 63.6395 39.0959 61.2603L36.2945 56.9343L36.9592 56.6325C39.531 55.4646 40.9472 53.1345 40.9472 50.0704C40.9472 48.0343 40.395 46.4946 39.2017 45.2037C38.1278 44.0418 36.8105 43.343 34.9701 42.9592C34.0731 42.7722 26.04 42.588 25.8841 42.7509ZM69.5944 42.7853C69.5612 42.839 70.923 48.173 72.6208 54.6384L75.7077 66.3937L77.9052 66.425L80.1029 66.4563L81.4061 61.9837C83.3142 55.4347 84.4492 51.4492 84.8151 50.0128C84.9929 49.3148 85.1787 48.698 85.2278 48.6419C85.2771 48.5859 85.3979 48.8195 85.4964 49.1611C87.3395 55.5532 88.8375 60.6785 89.6143 63.2502L90.5814 66.4514H92.7408H94.9002L95.0167 66.0188C95.3153 64.9092 100.678 42.9311 100.678 42.817C100.678 42.6238 97.2834 42.6378 97.1335 42.8316C96.9586 43.0579 94.3525 54.2497 93.2989 59.2992C92.6785 62.2724 92.5581 62.7118 92.4449 62.4139C92.4086 62.3187 91.8023 60.2163 91.0975 57.7418C89.8547 53.3793 87.8662 46.5665 87.1661 44.2736L86.8227 43.1489H85.2259C83.8038 43.1489 83.6227 43.171 83.5714 43.3508C83.5397 43.4617 82.6044 46.7192 81.4927 50.5895C80.3811 54.4598 79.1724 58.7316 78.8068 60.0822C78.4411 61.433 78.106 62.4971 78.062 62.4471C78.0181 62.3971 77.4519 60.0721 76.8037 57.2804C75.8754 53.2824 73.5869 43.982 73.2624 42.8893C73.2087 42.7084 73.0183 42.6875 71.4287 42.6875C70.4531 42.6875 69.6277 42.7315 69.5944 42.7853ZM57.7042 45.8619C59.4588 46.3087 60.9243 47.4829 61.7728 49.1218C62.6925 50.8984 63.0247 52.6741 62.9166 55.2369C62.7944 58.1331 62.0893 60.0481 60.5888 61.5593C59.3064 62.8508 57.9547 63.3786 55.9113 63.3855C53.8703 63.3926 52.5288 62.8598 51.1678 61.5019C49.5093 59.8473 48.7578 57.6676 48.7578 54.5118C48.7578 49.8522 50.6252 46.7436 53.9498 45.8689C54.8033 45.6443 56.8351 45.6405 57.7042 45.8619ZM34.3932 45.9589C35.276 46.1947 35.8765 46.5475 36.392 47.1332C37.0747 47.9085 37.278 48.5973 37.276 50.1281C37.2747 51.2818 37.2442 51.463 36.9404 52.1238C36.53 53.0167 35.7385 53.763 34.8203 54.1225C34.2362 54.3513 33.9007 54.3857 31.826 54.429L29.4896 54.4777V50.14V45.8021L31.653 45.8035C33.0886 45.8045 34.0104 45.8567 34.3932 45.9589ZM104.192 62.2846C103.287 62.6956 102.805 63.5827 102.895 64.6689C103.057 66.6195 105.464 67.4646 106.866 66.0629C107.695 65.2336 107.801 64.1108 107.148 63.0799C106.556 62.1481 105.261 61.7993 104.192 62.2846Z" fill="white"/>
</svg>
