<svg width="65" height="55" viewBox="0 0 65 55" fill="none" xmlns="http://www.w3.org/2000/svg">
<path id="grow-logo 1 (Traced)" fill-rule="evenodd" clip-rule="evenodd" d="M35.4834 0.709043C32.8168 0.899724 30.0143 1.54191 27.4634 2.54673C26.4025 2.96463 24.2179 4.0724 23.2272 4.69477C21.4651 5.80174 19.9471 7.01436 18.4404 8.51832C15.3109 11.6422 13.1511 15.1856 11.7782 19.4484L11.6163 19.9511H11.8902H12.1641L12.4928 18.9916C14.8082 12.2313 19.8455 6.63708 26.3233 3.63198C31.8594 1.06375 38.1168 0.496301 44.0423 2.02513C50.8952 3.79331 56.8367 8.35843 60.3444 14.5507C61.7384 17.0117 62.7947 19.8903 63.293 22.5859C64.21 27.5472 63.7459 32.524 61.9335 37.1614C61.5356 38.1794 60.6823 39.93 60.1289 40.8633C56.4104 47.1348 50.3848 51.5504 43.3225 53.1792C41.544 53.5894 40.0198 53.7775 38.0648 53.8283C29.5065 54.0506 21.4526 50.1326 16.2933 43.2371C14.5921 40.9635 13.2601 38.4112 12.3935 35.7645L12.1631 35.0607H11.9124C11.7125 35.0607 11.6617 35.081 11.6617 35.1606C11.6617 35.2156 11.8069 35.6874 11.9844 36.2091C13.0396 39.3099 14.6998 42.2418 16.881 44.8562C17.6339 45.7587 19.6111 47.681 20.5968 48.4691C24.6124 51.6795 29.202 53.5858 34.4736 54.233C35.6708 54.3799 39.1953 54.3786 40.392 54.2307C44.7862 53.6875 48.5686 52.3269 52.1016 50.0185C58.4138 45.8943 62.6665 39.3989 63.9164 31.9731C64.1879 30.3605 64.2576 29.4751 64.2616 27.5921C64.2664 25.3384 64.121 23.8824 63.6907 21.8753C62.7486 17.4807 60.6858 13.3444 57.7315 9.92587C57.0778 9.16941 55.6293 7.72808 54.8721 7.08049C50.5028 3.34381 45.0859 1.13062 39.2715 0.706629C38.3632 0.640388 36.4259 0.641653 35.4834 0.709043ZM27.4634 21.4295C26.1029 21.4871 24.9637 21.9591 24.0774 22.8324C22.8487 24.0431 22.2886 25.6879 22.3687 27.8506C22.4058 28.851 22.5112 29.4319 22.7974 30.2137C23.2591 31.4748 24.186 32.5258 25.3271 33.0822C26.7328 33.7675 28.705 33.7866 30.1548 33.129C31.2676 32.6243 32.2012 31.6181 32.6886 30.398C33.4259 28.552 33.3665 26.0217 32.5457 24.3203C31.5813 22.3207 29.8376 21.3289 27.4634 21.4295ZM5.37459 21.5046C4.1404 21.6982 3.12311 22.1923 2.245 23.0247C1.03355 24.173 0.490604 25.4198 0.415101 27.2266C0.291388 30.187 1.62896 32.3274 4.17384 33.2413C4.9064 33.5044 5.50405 33.5906 6.57638 33.5882C7.99974 33.5849 8.97071 33.3533 9.96961 32.7789C10.3076 32.5845 10.339 32.5497 10.3694 32.335C10.3876 32.2069 10.3949 30.8998 10.3856 29.4305L10.3688 26.7591L8.28584 26.744L6.20289 26.7289V27.5052V28.2815H7.40956H8.61624V29.9203V31.5591L8.45822 31.6194C7.60338 31.9456 6.24369 32.0217 5.32012 31.7952C3.75667 31.4116 2.70428 30.3005 2.37922 28.6903C2.30412 28.3181 2.28797 28.011 2.3082 27.3402C2.3321 26.5488 2.35112 26.4223 2.52293 25.913C2.94015 24.676 3.82988 23.7601 4.99805 23.365C6.25592 22.9395 7.95889 23.0957 9.30577 23.76C9.5744 23.8925 9.81355 24.0097 9.83728 24.0204C9.86101 24.031 9.88037 23.6277 9.88037 23.1242V22.2087L9.49251 22.0338C8.59457 21.6287 7.9336 21.4959 6.6913 21.471C6.15405 21.4602 5.56151 21.4753 5.37459 21.5046ZM12.854 21.6488C12.8302 21.6735 12.8109 24.3394 12.8109 27.573V33.4521H13.7302H14.6496V31.2099V28.9677L15.4341 28.9837L16.2186 28.9996L17.5942 31.2259L18.9697 33.4521H20.0322H21.0946L20.9617 33.2367C20.8886 33.1182 20.2011 32.0517 19.4337 30.8668L18.0386 28.7124L18.3696 28.5621C19.6504 27.9805 20.3557 26.82 20.3557 25.294C20.3557 24.28 20.0807 23.5132 19.4864 22.8703C18.9516 22.2917 18.2956 21.9437 17.379 21.7525C16.9323 21.6594 12.9317 21.5677 12.854 21.6488ZM34.6226 21.6659C34.6061 21.6927 35.2843 24.3491 36.1298 27.569L37.6672 33.4234L38.7616 33.4389L39.856 33.4545L40.505 31.2271C41.4553 27.9656 42.0206 25.9807 42.2028 25.2653C42.2914 24.9177 42.3839 24.6106 42.4084 24.5826C42.4329 24.5547 42.4931 24.671 42.5421 24.8412C43.46 28.0246 44.206 30.5771 44.5929 31.8578L45.0745 33.4521H46.15H47.2254L47.2834 33.2367C47.4321 32.684 50.1029 21.7385 50.1029 21.6817C50.1029 21.5855 48.4123 21.5925 48.3376 21.689C48.2505 21.8017 46.9526 27.3754 46.4279 29.8901C46.1189 31.3709 46.059 31.5897 46.0026 31.4413C45.9845 31.3939 45.6826 30.3469 45.3316 29.1145C44.7126 26.9419 43.7223 23.549 43.3736 22.4071L43.2026 21.847H42.4074C41.6992 21.847 41.609 21.858 41.5834 21.9475C41.5677 22.0028 41.1018 23.6251 40.5482 25.5526C39.9946 27.4801 39.3926 29.6075 39.2106 30.2801C39.0284 30.9528 38.8615 31.4828 38.8396 31.4579C38.8178 31.433 38.5358 30.2751 38.213 28.8847C37.7507 26.8937 36.6109 22.2619 36.4493 21.7177C36.4226 21.6276 36.3278 21.6172 35.5361 21.6172C35.0502 21.6172 34.6392 21.6391 34.6226 21.6659ZM28.7011 23.1981C29.5749 23.4206 30.3047 24.0054 30.7273 24.8216C31.1853 25.7064 31.3507 26.5907 31.2969 27.8671C31.236 29.3094 30.8849 30.2631 30.1376 31.0157C29.499 31.6589 28.8258 31.9218 27.8081 31.9252C26.7917 31.9287 26.1236 31.6634 25.4458 30.9872C24.6198 30.1631 24.2456 29.0776 24.2456 27.5059C24.2456 25.1854 25.1756 23.6372 26.8313 23.2016C27.2563 23.0898 28.2682 23.0879 28.7011 23.1981ZM17.0917 23.2464C17.5313 23.3639 17.8304 23.5395 18.0871 23.8312C18.4271 24.2174 18.5284 24.5604 18.5274 25.3228C18.5267 25.8973 18.5115 25.9876 18.3603 26.3167C18.1559 26.7614 17.7617 27.133 17.3044 27.3121C17.0135 27.426 16.8464 27.4431 15.8132 27.4647L14.6496 27.489V25.3287V23.1684L15.727 23.169C16.442 23.1695 16.901 23.1955 17.0917 23.2464ZM51.8531 31.377C51.4024 31.5816 51.162 32.0234 51.2068 32.5644C51.2874 33.5358 52.4864 33.9567 53.1846 33.2586C53.5977 32.8456 53.6504 32.2864 53.3248 31.773C53.0304 31.309 52.3851 31.1353 51.8531 31.377Z" fill="white"/>
</svg>
