<svg width="25" height="25" viewBox="0 0 25 25" fill="none" xmlns="http://www.w3.org/2000/svg">
<mask id="mask0_72_88" style="mask-type:alpha" maskUnits="userSpaceOnUse" x="0" y="0" width="25" height="25">
<rect x="0.230469" y="0.00292969" width="24" height="24" fill="#D9D9D9"/>
</mask>
<g mask="url(#mask0_72_88)">
<path d="M11.2305 16.0029V7.85293L8.63047 10.4529L7.23047 9.00293L12.2305 4.00293L17.2305 9.00293L15.8305 10.4529L13.2305 7.85293V16.0029H11.2305ZM6.23047 20.0029C5.68047 20.0029 5.20964 19.8071 4.81797 19.4154C4.4263 19.0238 4.23047 18.5529 4.23047 18.0029V15.0029H6.23047V18.0029H18.2305V15.0029H20.2305V18.0029C20.2305 18.5529 20.0346 19.0238 19.643 19.4154C19.2513 19.8071 18.7805 20.0029 18.2305 20.0029H6.23047Z" fill="#1C1B1F"/>
</g>
</svg>
